<svg width="106" height="106" viewBox="0 0 106 106" fill="none" xmlns="http://www.w3.org/2000/svg">
<circle opacity="0.3" cx="53" cy="53" r="53" fill="#6393F2"/>
<g filter="url(#filter0_d_257_13459)">
<circle cx="53" cy="53" r="22.0833" fill="#6393F2"/>
<circle cx="53" cy="53" r="23.0833" stroke="white" stroke-width="2"/>
</g>
<path d="M52.9986 63C52.7564 63 52.5146 62.9557 52.2731 62.867C52.0316 62.7783 51.816 62.6453 51.6262 62.468C50.5464 61.4404 49.5924 60.4422 48.7642 59.4735C47.9359 58.5048 47.2447 57.5637 46.6905 56.6501C46.1363 55.7366 45.716 54.8518 45.4296 53.9959C45.1432 53.1399 45 52.3109 45 51.5088C45 48.9147 45.8042 46.848 47.4125 45.3088C49.0208 43.7696 50.8833 43 53 43C55.1167 43 56.9792 43.7696 58.5875 45.3088C60.1958 46.848 61 48.9147 61 51.5088C61 52.3109 60.8568 53.1399 60.5704 53.9959C60.284 54.8518 59.8637 55.7366 59.3095 56.6501C58.7553 57.5637 58.0641 58.5048 57.2358 59.4735C56.4076 60.4422 55.4536 61.4404 54.3738 62.468C54.1835 62.6453 53.9673 62.7783 53.7251 62.867C53.4829 62.9557 53.2408 63 52.9986 63ZM53 53.4216C53.5558 53.4216 54.0296 53.2177 54.4212 52.8099C54.8129 52.4021 55.0087 51.9088 55.0087 51.33C55.0087 50.7513 54.8129 50.258 54.4212 49.8502C54.0296 49.4423 53.5558 49.2384 53 49.2384C52.4442 49.2384 51.9704 49.4423 51.5788 49.8502C51.1871 50.258 50.9913 50.7513 50.9913 51.33C50.9913 51.9088 51.1871 52.4021 51.5788 52.8099C51.9704 53.2177 52.4442 53.4216 53 53.4216Z" fill="white"/>
<defs>
<filter id="filter0_d_257_13459" x="22.9166" y="23.9167" width="60.1666" height="60.1667" filterUnits="userSpaceOnUse" color-interpolation-filters="sRGB">
<feFlood flood-opacity="0" result="BackgroundImageFix"/>
<feColorMatrix in="SourceAlpha" type="matrix" values="0 0 0 0 0 0 0 0 0 0 0 0 0 0 0 0 0 0 127 0" result="hardAlpha"/>
<feOffset dy="1"/>
<feGaussianBlur stdDeviation="3"/>
<feColorMatrix type="matrix" values="0 0 0 0 0 0 0 0 0 0 0 0 0 0 0 0 0 0 0.15 0"/>
<feBlend mode="normal" in2="BackgroundImageFix" result="effect1_dropShadow_257_13459"/>
<feBlend mode="normal" in="SourceGraphic" in2="effect1_dropShadow_257_13459" result="shape"/>
</filter>
</defs>
</svg>
